<svg xmlns="http://www.w3.org/2000/svg" fill="#03AC13" viewBox="0 0 164.49 58.2" x="0px" y="0px"><title>Asset 41x</title><g data-name="Layer 2"><g data-name="Layer 1"><path d="M81.33,46.18l-22-22a1.29,1.29,0,0,1,0-1.82l22-22a1.29,1.29,0,0,1,1.83,0l22,22a1.27,1.27,0,0,1,0,1.82l-22,22A1.3,1.3,0,0,1,81.33,46.18Zm-14.09-22L81.33,38.28a1.3,1.3,0,0,0,1.83,0L97.25,24.19a1.29,1.29,0,0,0,0-1.82L83.16,8.28a1.29,1.29,0,0,0-1.83,0L67.24,22.37A1.29,1.29,0,0,0,67.24,24.19Z"/><rect y="12.45" width="53.81" height="5.75" rx="2.88"/><rect x="16.41" y="28.35" width="37.4" height="5.75" rx="2.88"/><rect x="110.67" y="12.45" width="53.81" height="5.75" rx="2.88" transform="translate(275.16 30.65) rotate(-180)"/><rect x="110.67" y="28.35" width="37.4" height="5.75" rx="2.88" transform="translate(258.74 62.46) rotate(-180)"/></g></g></svg>